# xmcd
# 
# Track frame offsets:
#     150
#     23952
#     48078
#     72051
#     100384
#     130278
#     150364
#     177064
#     202371
#     226814
# 
# Disc length: 3477
# 
# Revision: 0
# Processed by: cddbd v1.5.2PL0 Copyright (c) Steve Scherf et al.
# Submitted via: BonkEnc v1.0.8
# 
DISCID=7d0d930a
DTITLE=Álamo Leal - Dallas Glitter, Menphis Grit And Rio Spirit
DYEAR=1997
DGENRE=Blues
TTITLE0=Confessin' The Blues
TTITLE1=24 Hours Blues
TTITLE2=Mojo Spell
TTITLE3=Q.
TTITLE4=I'm Giving Up
TTITLE5=Who's Fooling Who ?
TTITLE6=Cadilac Assembly Line
TTITLE7=Three Hours Past Midnight
TTITLE8=Cry For Me
TTITLE9=Magolia
EXTD=
EXTT0=
EXTT1=
EXTT2=
EXTT3=
EXTT4=
EXTT5=
EXTT6=
EXTT7=
EXTT8=
EXTT9=
PLAYORDER=
